<svg xmlns="http://www.w3.org/2000/svg" viewBox="0 0 1004.53 621.43"><defs><style>.cls-1{fill:#6730ec;}</style></defs><title>Ativo 5</title><g id="Camada_2" data-name="Camada 2"><g id="Camada_1-2" data-name="Camada 1"><path class="cls-1" d="M585.14,621.43a481.13,481.13,0,0,1-131.42-18.38c-87.21-24.81-166-73.52-234.1-144.81L65.3,560.22a41.38,41.38,0,0,1-47.94-1.3,41.37,41.37,0,0,1-15.13-45.5c15.53-52,26.77-89.3,33.39-110.82,13.54-44-1-99.41-2-103.21L2,198.65a41.3,41.3,0,0,1,14.83-46,41.32,41.32,0,0,1,48.28-1.27l147.59,98.83a7.27,7.27,0,0,0,9.57-1.14C274.2,188.43,341,143.73,420.86,116.24c89.95-31,201.68-25.88,218.49-23.65,224.94,29.76,332.34,193.33,359.9,242.76a41.65,41.65,0,0,1,1,38.76c-53.71,108.55-174.92,182-224.55,208.6a41.8,41.8,0,0,1-54.17-13.28C618.14,419.49,650.56,313.23,652,308.78l32.72,10.51L668.35,314l16.39,5.16c-.28.94-28,95.78,65,230.72a7.45,7.45,0,0,0,9.65,2.48c46.7-25,160.66-93.89,210-193.54a7.27,7.27,0,0,0-.17-6.77C943.64,306.2,843.91,154.33,634.84,126.67c-13.13-1.74-119.3-6.67-202.79,22.08-74,25.46-135.77,66.75-183.69,122.71a41.64,41.64,0,0,1-54.8,7.34L46,180a7,7,0,0,0-8.56.22,7,7,0,0,0-2.62,8.15L66.64,289.88c.77,2.75,18.73,67.91,1.83,122.83-6.59,21.43-17.8,58.62-33.3,110.55a7,7,0,0,0,2.68,8,7,7,0,0,0,8.5.23L214,420.73c3.63-2.74,36.57-28,62.5-60.79,40.86-51.76,151.87-142.71,308.72-155.25a41.91,41.91,0,0,1,37,16.61A41.44,41.44,0,0,1,627.85,261c-22.14,58.64-47.12,174.63,34.37,292.65a41.78,41.78,0,0,1-30,65.33A449.71,449.71,0,0,1,585.14,621.43ZM247.67,437.81c143.18,147.51,299.78,155.55,381,147a7.4,7.4,0,0,0,5.3-11.61c-90.39-130.92-62.76-259.39-38.24-324.32a7,7,0,0,0-1-6.93,7.5,7.5,0,0,0-6.75-3C406.3,253.48,307.59,376,303.48,381.24,284.13,405.75,261.79,426,247.67,437.81Z"/><path class="cls-1" d="M806.82,395.5a64,64,0,1,1,64-64A64.07,64.07,0,0,1,806.82,395.5Zm0-93.62a29.63,29.63,0,1,0,29.63,29.63A29.66,29.66,0,0,0,806.82,301.88Z"/><path class="cls-1" d="M408.38,131.89,391.59,50.2A41.76,41.76,0,0,1,435.74.13c54.48,4.28,152.71,22.25,198.38,94.58l-29.06,18.35c-37.67-59.65-123.94-74.89-172-78.66A7.1,7.1,0,0,0,427,36.87a7.28,7.28,0,0,0-1.71,6.42L442,125Z"/></g></g></svg>